<?xml version="1.0" encoding="UTF-8"?>
<!DOCTYPE svg PUBLIC "-//W3C//DTD SVG 1.0//EN" "http://www.w3.org/TR/2001/REC-SVG-20010904/DTD/svg10.dtd">
<!-- Creator: CorelDRAW 2020 (64-Bit) -->
<svg xmlns="http://www.w3.org/2000/svg" xml:space="preserve" width="210mm" height="297mm" version="1.0" style="shape-rendering:geometricPrecision; text-rendering:geometricPrecision; image-rendering:optimizeQuality; fill-rule:evenodd; clip-rule:evenodd"
viewBox="0 0 21000 29700"
 xmlns:xlink="http://www.w3.org/1999/xlink"
 xmlns:xodm="http://www.corel.com/coreldraw/odm/2003">
 <defs>
  <style type="text/css">
   <![CDATA[
    .fil0 {fill:#2196F3}
   ]]>
  </style>
 </defs>
 <g id="Capa_x0020_1">
  <metadata id="CorelCorpID_0Corel-Layer"/>
  <g id="_2367954681264">
   <path class="fil0" d="M8984.65 5369.3c0,-201.95 -8.35,-1174.59 5.28,-1295.02 1.61,-14.23 10.48,-46.87 14.58,-57.94 29.47,-79.56 109.99,-144.76 196.56,-166.08 76.44,-18.81 522.03,-9.2 638.36,-9.2 21.09,-90.52 -3.45,-146.94 53.76,-231.16 23.54,-34.66 70.34,-75.36 109.86,-92.18 22.47,-9.57 33.51,-16.6 61.06,-21.83 66.17,-12.57 737.63,-12.19 810.32,-0.83 23.6,3.69 70.21,22.51 89.25,35.09 24.4,16.1 50.2,33.75 67.26,57.06 23.06,31.5 45.81,59.83 55.89,104.71 10.42,46.37 5.95,103.26 16.63,149.14 116.35,0 558.43,-9.02 634.28,8.1 48.6,10.97 111.99,44.37 140.69,76.9 6.82,7.73 7.41,11.02 16.31,19.95 45.27,45.36 63.5,127.65 63.5,190.34 0,184.18 7.46,1202.8 -5.61,1299.86 -5.39,39.97 -16.12,54.42 -30.72,83.26 -3.68,7.27 -7.03,16.35 -12.23,24.03 -56.24,82.95 -154.01,121.09 -257.09,121.09l-2362.29 0c-105.49,0 -148.68,-23.41 -220.81,-79.66 -33.76,-26.33 -70.78,-99.14 -78.64,-144.12 -4.34,-24.92 -6.2,-44.52 -6.2,-71.51zm720.09 -1673.29l-461.06 0c-80.8,0 -196.34,45.22 -252.65,99.62l-49.16 49.28c-31.29,31.44 -60.9,84.28 -75.65,126.38 -15.69,44.82 -26.62,66.29 -26.62,128.8l0 1305.47c0,83.47 43.26,194.27 99.62,252.65 24.86,25.76 12.66,18.15 35.96,36.57l41.89 35.82c51.9,38.95 152.15,79.04 226.61,79.04l2455.54 0c70.64,0 167.66,-36.63 223.73,-76.74l41.84 -35.86c49.66,-41.59 90.28,-100.99 111.88,-162.69 15.69,-44.81 26.62,-66.28 26.62,-128.79l0 -1305.47c0,-86.9 -42.99,-195.27 -104.94,-257.69 -48.01,-48.38 -76.08,-79.51 -148.13,-110.9 -50.27,-21.9 -97.67,-35.49 -171.72,-35.49 13.88,-57.99 6.77,-134.69 -67.35,-134.69l-212.4 0c-85.03,0 -77.71,78.45 -77.71,134.69l-82.88 0c0,-33.52 -8.6,-44.49 -17.53,-70.54l-29.23 -64.02c-35.68,-60.25 -38.69,-56.99 -84.04,-102.45 -38.34,-38.43 -26.34,-21.87 -61.98,-50.07l-61.9 -33.28c-29.14,-13.45 -102.6,-31.91 -133.86,-31.91l-756.35 0c-44.69,0 -137.16,28.18 -176.11,51.76 -7.15,4.34 -4.35,3.07 -11.6,8.63 -0.91,0.7 -2.08,1.71 -3.01,2.42 -0.94,0.71 -2.15,1.67 -3.11,2.38 -0.96,0.71 -2.22,1.6 -3.19,2.3 -1.28,0.92 -5,3.5 -6.27,4.36 -24.41,16.58 -30.63,19.5 -51.84,40.83 -50.77,51.04 -88.53,88.48 -114.66,165.08 -8.9,26.07 -18.74,41.62 -18.74,74.51z"/>
   <path class="fil0" d="M9808.35 4789.09c0,-98.45 -3.73,-114.98 21.74,-216.56 19.91,-79.41 77.83,-196.02 132.3,-256.24 7.45,-8.25 13.27,-12.51 20.92,-20.52l38.81 -38.9c48.15,-43.2 75.37,-67.88 138.42,-99.87 9.35,-4.75 16.91,-8.28 27.71,-13.74l81 -32.97c64.27,-24.45 160.39,-30.93 233.28,-30.93 104.75,0 264.94,55.47 347.99,118.26 31.01,23.44 34.62,23.2 62.52,51.45 10.86,11 10.95,9.63 22.69,18.74 11.29,8.76 8.78,9.67 16.55,19.73 13.27,17.2 22.88,21.19 54.89,64.25 25.22,33.93 38.6,57.77 58.29,97.13 9.96,19.92 16.91,30.87 24.45,53.25 55.4,164.29 59.63,252.94 20.93,423.8l-89.29 190.46c-56.83,79.04 -61.65,78.79 -134.32,145.42 -8.39,7.69 -14.3,10.56 -24.2,17.24 -47.61,32.15 -68.37,47.9 -127.33,74.72 -8.98,4.09 -17.87,6.51 -26.67,9.59 -46.98,16.45 -31.25,14.43 -95.49,28.84 -130.04,29.16 -252.97,17.94 -375.86,-27.47 -88.04,-32.54 -199.4,-103.34 -262.23,-178.12 -55.87,-66.49 -124.45,-177.04 -143.39,-260.68 -7.4,-32.63 -23.71,-107.01 -23.71,-136.88zm-139.88 -46.63c0,52.7 8.17,137.63 19.99,176.87 15.24,50.56 23.46,95.72 48.12,148.74 27.11,58.28 72.48,132.63 112.2,183.09l71.47 73.59c11.01,8.07 17.29,15.62 26.67,25.13 33.06,33.54 75.36,56.98 114.3,82.55 44.43,29.18 32.68,17.21 64.11,34.33 47.79,26.03 27.12,12.29 69.49,28.94 117.44,46.13 267.17,62.82 392.68,41.45 15.88,-2.7 26.26,-1.54 41.64,-4.98 114.89,-25.69 281.26,-95.94 364.28,-179.66l51.77 -46.67c9.67,-11.61 8.71,-13.94 20.64,-25.98 42.07,-42.48 15.03,-13.47 44.81,-53.62 14.01,-18.89 26.89,-30.82 41.22,-57.2l80.47 -168.19c9.54,-25.37 13.05,-52.85 20.74,-77.7 27.28,-88.21 27.66,-270.16 1.36,-357.56 -23.64,-78.56 -37.64,-141.13 -84.67,-215.79 -47.22,-74.96 -17.56,-36.44 -82.77,-119.27 -46.2,-58.7 -97.63,-99.79 -155.88,-144.58 -27.79,-21.37 -94.96,-57.32 -128.08,-73.97 -57.86,-29.08 -168.23,-56.15 -234.24,-66.22 -16.97,-2.59 -34.08,0.19 -50.76,-1.04 -58.67,-4.32 -9.78,-9.6 -88.39,-0.41 -35.44,4.15 -61.34,-5.85 -133.7,16.53 -24.84,7.69 -52.33,11.2 -77.7,20.74 -101.36,38.1 -210.66,91.92 -286.87,169.01 -9.82,9.94 -16.01,16.04 -25.88,25.91 -60.6,60.6 -87.03,95.76 -128.31,166.99l-36.21 67.39c-10.82,21.51 -18,45.38 -28.04,70.39 -26.64,66.31 -44.46,183.72 -44.46,261.19z"/>
   <path class="fil0" d="M9989.66 3747.81c0,44.65 24.43,62.17 77.71,62.17l797.79 0c110.9,0 93.98,-113.97 15.54,-113.97l-828.87 0c-33.44,0 -62.17,19.39 -62.17,51.8z"/>
   <path class="fil0" d="M9958.58 4752.82c0,29.87 -4.56,53.14 14.29,68.6 33.04,27.09 64.87,6.35 74.17,-11.22 8.03,-15.17 2.44,-44.06 5.88,-66.65 11.37,-74.7 32.51,-149.99 73.5,-211.42 40.64,-60.91 81.72,-103.79 140.81,-144.12l45.6 -26.92c125.4,-73.38 262.23,-22.07 262.23,-95.23l0 -25.9c-16.69,-11.17 -20.44,-23.36 -47.04,-25.88l-66.96 5.13c-170.95,11.37 -358.17,145.73 -436.88,303.93 -16.68,33.52 -31.81,63 -42.83,102.22 -7.34,26.13 -22.77,100.33 -22.77,127.46z"/>
  </g>
 </g>
</svg>
