<?xml version="1.0" encoding="UTF-8"?>
<!DOCTYPE svg PUBLIC "-//W3C//DTD SVG 1.0//EN" "http://www.w3.org/TR/2001/REC-SVG-20010904/DTD/svg10.dtd">
<!-- Creator: CorelDRAW 2020 (64-Bit) -->
<svg xmlns="http://www.w3.org/2000/svg" xml:space="preserve" width="2480px" height="3508px" version="1.0" style="shape-rendering:geometricPrecision; text-rendering:geometricPrecision; image-rendering:optimizeQuality; fill-rule:evenodd; clip-rule:evenodd"
viewBox="0 0 2480 3507.43"
 xmlns:xlink="http://www.w3.org/1999/xlink"
 xmlns:xodm="http://www.corel.com/coreldraw/odm/2003">
 <defs>
  <style type="text/css">
   <![CDATA[
    .fil0 {fill:#2196F3}
   ]]>
  </style>
 </defs>
 <g id="Capa_x0020_1">
  <metadata id="CorelCorpID_0Corel-Layer"/>
  <g id="_2367961761488">
   <path class="fil0" d="M95.14 268.73c0,-23.85 -0.98,-138.71 0.63,-152.94 0.19,-1.68 1.23,-5.53 1.72,-6.84 3.48,-9.39 12.99,-17.09 23.21,-19.61 9.03,-2.22 61.65,-1.09 75.39,-1.09 2.49,-10.69 -0.41,-17.35 6.35,-27.3 2.78,-4.09 8.3,-8.9 12.97,-10.88 2.66,-1.13 3.96,-1.96 7.21,-2.58 7.82,-1.49 87.11,-1.44 95.7,-0.1 2.78,0.44 8.29,2.66 10.54,4.14 2.88,1.91 5.93,3.99 7.94,6.74 2.72,3.72 5.41,7.07 6.6,12.37 1.23,5.47 0.7,12.19 1.96,17.61 13.75,0 65.95,-1.06 74.91,0.96 5.74,1.29 13.23,5.24 16.62,9.08 0.8,0.91 0.87,1.3 1.92,2.36 5.35,5.35 7.5,15.07 7.5,22.47 0,21.75 0.88,142.05 -0.66,153.51 -0.64,4.72 -1.91,6.43 -3.63,9.83 -0.43,0.86 -0.83,1.93 -1.44,2.84 -6.65,9.8 -18.19,14.3 -30.37,14.3l-278.97 0c-12.46,0 -17.56,-2.76 -26.08,-9.41 -3.98,-3.11 -8.36,-11.7 -9.28,-17.02 -0.52,-2.94 -0.74,-5.25 -0.74,-8.44zm85.04 -197.61l-54.45 0c-9.54,0 -23.18,5.34 -29.83,11.77l-5.81 5.82c-3.69,3.71 -7.19,9.95 -8.93,14.92 -1.86,5.29 -3.15,7.83 -3.15,15.21l0 154.17c0,9.86 5.11,22.94 11.77,29.84 2.93,3.04 1.49,2.14 4.25,4.32l4.94 4.23c6.13,4.6 17.97,9.33 26.76,9.33l289.99 0c8.34,0 19.8,-4.32 26.42,-9.06l4.94 -4.24c5.87,-4.91 10.67,-11.92 13.22,-19.21 1.85,-5.29 3.14,-7.83 3.14,-15.21l0 -154.17c0,-10.26 -5.08,-23.06 -12.39,-30.43 -5.67,-5.71 -8.99,-9.39 -17.5,-13.1 -5.93,-2.58 -11.53,-4.19 -20.28,-4.19 1.64,-6.85 0.8,-15.9 -7.95,-15.9l-25.08 0c-10.04,0 -9.18,9.26 -9.18,15.9l-9.79 0c0,-3.96 -1.01,-5.25 -2.07,-8.33l-3.45 -7.56c-4.21,-7.11 -4.57,-6.73 -9.92,-12.1 -4.53,-4.54 -3.12,-2.58 -7.32,-5.91l-7.31 -3.93c-3.45,-1.59 -12.12,-3.77 -15.81,-3.77l-89.32 0c-5.28,0 -16.2,3.33 -20.8,6.11 -0.85,0.52 -0.52,0.37 -1.37,1.02 -0.11,0.08 -0.25,0.2 -0.36,0.29 -0.11,0.08 -0.25,0.2 -0.36,0.28 -0.12,0.08 -0.27,0.19 -0.38,0.27 -0.15,0.11 -0.59,0.41 -0.74,0.52 -2.88,1.95 -3.62,2.3 -6.12,4.82 -6,6.02 -10.46,10.45 -13.54,19.49 -1.06,3.08 -2.22,4.92 -2.22,8.8z"/>
   <path class="fil0" d="M192.42 200.21c0,-11.63 -0.44,-13.58 2.57,-25.58 2.35,-9.37 9.19,-23.14 15.62,-30.26 0.88,-0.97 1.57,-1.47 2.47,-2.42l4.58 -4.59c5.69,-5.11 8.9,-8.02 16.35,-11.8 1.1,-0.56 2,-0.98 3.27,-1.62l9.57 -3.89c7.59,-2.89 18.94,-3.66 27.55,-3.66 12.37,0 31.29,6.55 41.09,13.97 3.67,2.77 4.09,2.74 7.39,6.08 1.28,1.29 1.29,1.13 2.68,2.21 1.33,1.03 1.03,1.14 1.95,2.33 1.57,2.03 2.7,2.5 6.48,7.59 2.98,4 4.56,6.82 6.89,11.47 1.17,2.35 1.99,3.64 2.88,6.29 6.55,19.4 7.05,29.87 2.48,50.04l-10.55 22.5c-6.71,9.33 -7.28,9.3 -15.86,17.17 -0.99,0.91 -1.69,1.25 -2.86,2.04 -5.62,3.79 -8.07,5.65 -15.04,8.82 -1.06,0.48 -2.11,0.77 -3.15,1.13 -5.54,1.95 -3.69,1.71 -11.27,3.41 -15.36,3.44 -29.88,2.12 -44.39,-3.25 -10.4,-3.84 -23.55,-12.2 -30.97,-21.03 -6.6,-7.85 -14.69,-20.91 -16.93,-30.79 -0.88,-3.85 -2.8,-12.63 -2.8,-16.16zm-16.52 -5.51c0,6.23 0.96,16.26 2.36,20.89 1.8,5.97 2.77,11.3 5.68,17.57 3.2,6.88 8.56,15.66 13.25,21.62l8.44 8.69c1.3,0.95 2.05,1.84 3.15,2.97 3.91,3.96 8.9,6.72 13.5,9.74 5.25,3.45 3.86,2.04 7.57,4.06 5.65,3.07 3.21,1.45 8.21,3.42 13.87,5.44 31.55,7.42 46.37,4.89 1.88,-0.32 3.1,-0.18 4.92,-0.59 13.57,-3.03 33.22,-11.33 43.02,-21.21l6.11 -5.52c1.15,-1.37 1.03,-1.64 2.44,-3.06 4.97,-5.02 1.78,-1.59 5.29,-6.34 1.66,-2.23 3.18,-3.64 4.87,-6.75l9.5 -19.86c1.13,-3 1.54,-6.24 2.45,-9.18 3.22,-10.42 3.27,-31.9 0.16,-42.23 -2.79,-9.27 -4.44,-16.66 -10,-25.48 -5.57,-8.85 -2.07,-4.3 -9.77,-14.08 -5.46,-6.94 -11.53,-11.79 -18.41,-17.08 -3.28,-2.52 -11.21,-6.77 -15.12,-8.73 -6.84,-3.44 -19.87,-6.63 -27.67,-7.82 -2,-0.31 -4.02,0.02 -5.99,-0.13 -6.93,-0.51 -1.16,-1.13 -10.44,-0.05 -4.19,0.49 -7.24,-0.69 -15.79,1.96 -2.93,0.9 -6.18,1.32 -9.18,2.45 -11.97,4.5 -24.87,10.85 -33.87,19.96 -1.16,1.17 -1.89,1.89 -3.06,3.06 -7.16,7.15 -10.28,11.3 -15.15,19.72l-4.28 7.95c-1.28,2.54 -2.12,5.36 -3.31,8.32 -3.15,7.83 -5.25,21.69 -5.25,30.84z"/>
   <path class="fil0" d="M213.83 77.24c0,5.27 2.89,7.34 9.18,7.34l94.21 0c13.1,0 11.1,-13.46 1.84,-13.46l-97.89 0c-3.95,0 -7.34,2.29 -7.34,6.12z"/>
   <path class="fil0" d="M210.16 195.93c0,3.52 -0.54,6.27 1.69,8.1 3.9,3.2 7.66,0.75 8.76,-1.33 0.94,-1.79 0.28,-5.2 0.69,-7.87 1.34,-8.82 3.84,-17.71 8.68,-24.97 4.8,-7.19 9.65,-12.25 16.63,-17.02l5.39 -3.18c14.8,-8.66 30.96,-2.6 30.96,-11.24l0 -3.06c-1.97,-1.32 -2.41,-2.76 -5.55,-3.06l-7.91 0.61c-20.19,1.34 -42.3,17.21 -51.59,35.89 -1.97,3.96 -3.76,7.44 -5.06,12.07 -0.87,3.09 -2.69,11.85 -2.69,15.06z"/>
  </g>
 </g>
</svg>
