<?xml version="1.0" encoding="UTF-8"?>
<!DOCTYPE svg PUBLIC "-//W3C//DTD SVG 1.0//EN" "http://www.w3.org/TR/2001/REC-SVG-20010904/DTD/svg10.dtd">
<!-- Creator: CorelDRAW 2020 (64-Bit) -->
<svg xmlns="http://www.w3.org/2000/svg" xml:space="preserve" width="354px" height="354px" version="1.0" style="shape-rendering:geometricPrecision; text-rendering:geometricPrecision; image-rendering:optimizeQuality; fill-rule:evenodd; clip-rule:evenodd"
viewBox="0 0 354 354"
 xmlns:xlink="http://www.w3.org/1999/xlink"
 xmlns:xodm="http://www.corel.com/coreldraw/odm/2003">
 <defs>
  <style type="text/css">
   <![CDATA[
    .fil0 {fill:#2196F3}
   ]]>
  </style>
 </defs>
 <g id="Capa_x0020_1">
  <metadata id="CorelCorpID_0Corel-Layer"/>
  <g id="_2367952245568">
   <path class="fil0" d="M33.08 175.46c0,-13.15 -0.54,-76.51 0.34,-84.36 0.11,-0.93 0.69,-3.05 0.95,-3.77 1.92,-5.19 7.17,-9.43 12.81,-10.82 4.98,-1.23 34.01,-0.6 41.58,-0.6 1.38,-5.9 -0.22,-9.58 3.5,-15.06 1.54,-2.26 4.59,-4.91 7.16,-6.01 1.46,-0.62 2.18,-1.08 3.98,-1.42 4.31,-0.82 48.05,-0.79 52.78,-0.05 1.54,0.24 4.58,1.46 5.82,2.28 1.59,1.05 3.27,2.2 4.38,3.72 1.5,2.05 2.98,3.9 3.64,6.82 0.68,3.02 0.39,6.73 1.08,9.72 7.58,0 36.38,-0.59 41.32,0.53 3.17,0.71 7.3,2.89 9.17,5 0.44,0.51 0.48,0.72 1.06,1.3 2.95,2.96 4.14,8.32 4.14,12.4 0,12 0.48,78.36 -0.37,84.68 -0.35,2.6 -1.05,3.54 -2,5.42 -0.24,0.48 -0.46,1.07 -0.8,1.57 -3.66,5.4 -10.03,7.89 -16.74,7.89l-153.89 0c-6.87,0 -9.68,-1.53 -14.38,-5.19 -2.2,-1.72 -4.61,-6.46 -5.13,-9.39 -0.28,-1.62 -0.4,-2.9 -0.4,-4.66zm46.91 -109l-30.04 0c-5.26,0 -12.79,2.94 -16.45,6.49l-3.21 3.21c-2.03,2.05 -3.96,5.49 -4.92,8.23 -1.03,2.92 -1.74,4.32 -1.74,8.39l0 85.04c0,5.44 2.82,12.66 6.49,16.46 1.62,1.68 0.83,1.18 2.34,2.38l2.73 2.34c3.38,2.53 9.91,5.14 14.76,5.14l159.96 0c4.6,0 10.92,-2.38 14.58,-4.99l2.72 -2.34c3.24,-2.71 5.88,-6.58 7.29,-10.6 1.02,-2.92 1.73,-4.32 1.73,-8.39l0 -85.04c0,-5.66 -2.8,-12.72 -6.83,-16.79 -3.13,-3.15 -4.96,-5.17 -9.65,-7.22 -3.28,-1.43 -6.36,-2.31 -11.19,-2.31 0.91,-3.78 0.44,-8.78 -4.38,-8.78l-13.84 0c-5.54,0 -5.06,5.12 -5.06,8.78l-5.4 0c0,-2.19 -0.56,-2.9 -1.14,-4.6l-1.91 -4.17c-2.32,-3.92 -2.52,-3.71 -5.47,-6.67 -2.5,-2.5 -1.72,-1.42 -4.04,-3.26l-4.03 -2.17c-1.9,-0.88 -6.69,-2.08 -8.72,-2.08l-49.27 0c-2.91,0 -8.94,1.84 -11.47,3.37 -0.47,0.29 -0.29,0.2 -0.76,0.57 -0.06,0.04 -0.13,0.11 -0.2,0.15 -0.06,0.05 -0.14,0.11 -0.2,0.16 -0.06,0.04 -0.14,0.1 -0.21,0.15 -0.08,0.06 -0.32,0.23 -0.4,0.28 -1.59,1.08 -2,1.27 -3.38,2.66 -3.31,3.33 -5.77,5.77 -7.47,10.76 -0.58,1.69 -1.22,2.71 -1.22,4.85z"/>
   <path class="fil0" d="M86.74 137.66c0,-6.41 -0.24,-7.49 1.41,-14.1 1.3,-5.18 5.07,-12.77 8.62,-16.69 0.49,-0.54 0.87,-0.82 1.36,-1.34l2.53 -2.53c3.14,-2.82 4.91,-4.43 9.02,-6.51 0.61,-0.31 1.1,-0.54 1.81,-0.9l5.27 -2.14c4.19,-1.6 10.45,-2.02 15.2,-2.02 6.82,0 17.26,3.61 22.67,7.7 2.02,1.53 2.25,1.52 4.07,3.36 0.71,0.71 0.71,0.62 1.48,1.22 0.73,0.57 0.57,0.63 1.08,1.28 0.86,1.12 1.49,1.38 3.57,4.19 1.64,2.21 2.52,3.76 3.8,6.33 0.65,1.29 1.1,2.01 1.59,3.46 3.61,10.71 3.89,16.48 1.36,27.61l-5.81 12.41c-3.7,5.15 -4.02,5.13 -8.75,9.47 -0.55,0.5 -0.93,0.69 -1.58,1.12 -3.1,2.1 -4.45,3.12 -8.29,4.87 -0.59,0.27 -1.17,0.42 -1.74,0.63 -3.06,1.07 -2.04,0.94 -6.22,1.87 -8.47,1.9 -16.48,1.17 -24.48,-1.78 -5.74,-2.12 -12.99,-6.74 -17.09,-11.61 -3.64,-4.33 -8.1,-11.53 -9.34,-16.98 -0.48,-2.12 -1.54,-6.97 -1.54,-8.92zm-9.11 -3.03c0,3.43 0.53,8.96 1.3,11.52 0.99,3.29 1.53,6.23 3.13,9.69 1.77,3.79 4.72,8.64 7.31,11.92l4.66 4.8c0.71,0.52 1.12,1.02 1.73,1.64 2.16,2.18 4.91,3.71 7.45,5.37 2.89,1.9 2.13,1.12 4.18,2.24 3.11,1.7 1.76,0.8 4.52,1.88 7.65,3.01 17.41,4.1 25.58,2.7 1.04,-0.17 1.71,-0.1 2.72,-0.32 7.48,-1.67 18.32,-6.25 23.73,-11.7l3.37 -3.04c0.63,-0.76 0.57,-0.91 1.34,-1.7 2.74,-2.76 0.98,-0.87 2.92,-3.49 0.91,-1.23 1.75,-2.01 2.69,-3.73l5.24 -10.95c0.62,-1.65 0.85,-3.44 1.35,-5.06 1.78,-5.75 1.8,-17.6 0.09,-23.3 -1.54,-5.11 -2.45,-9.19 -5.52,-14.05 -3.07,-4.89 -1.14,-2.38 -5.39,-7.77 -3.01,-3.82 -6.36,-6.5 -10.15,-9.42 -1.81,-1.39 -6.19,-3.73 -8.35,-4.82 -3.77,-1.89 -10.96,-3.66 -15.26,-4.31 -1.1,-0.17 -2.21,0.01 -3.3,-0.07 -3.82,-0.28 -0.64,-0.63 -5.76,-0.03 -2.31,0.27 -4,-0.38 -8.71,1.08 -1.62,0.5 -3.41,0.73 -5.06,1.35 -6.6,2.48 -13.72,5.99 -18.69,11.01 -0.64,0.65 -1.04,1.05 -1.68,1.69 -3.95,3.95 -5.67,6.24 -8.36,10.88l-2.36 4.39c-0.71,1.4 -1.17,2.95 -1.83,4.58 -1.73,4.32 -2.89,11.97 -2.89,17.02z"/>
   <path class="fil0" d="M98.55 69.83c0,2.91 1.59,4.05 5.06,4.05l51.97 0c7.22,0 6.12,-7.42 1.01,-7.42l-53.99 0c-2.18,0 -4.05,1.26 -4.05,3.37z"/>
   <path class="fil0" d="M96.52 135.3c0,1.95 -0.29,3.46 0.94,4.47 2.15,1.77 4.22,0.41 4.83,-0.73 0.52,-0.99 0.16,-2.87 0.38,-4.34 0.74,-4.87 2.12,-9.77 4.79,-13.77 2.65,-3.97 5.32,-6.77 9.17,-9.39l2.97 -1.76c8.17,-4.78 17.08,-1.43 17.08,-6.2l0 -1.69c-1.08,-0.73 -1.33,-1.52 -3.06,-1.68l-4.36 0.33c-11.14,0.74 -23.33,9.5 -28.46,19.8 -1.09,2.18 -2.07,4.1 -2.79,6.66 -0.48,1.7 -1.49,6.53 -1.49,8.3z"/>
  </g>
 </g>
</svg>
